<svg width="100" height="100" viewBox="0 0 26.458 26.458" xmlns="http://www.w3.org/2000/svg">
  <path style="fill:#0e0e12;fill-opacity:1;stroke:none;stroke-width:4.58654;stroke-linecap:round;stroke-linejoin:round;stroke-dasharray:9.17309,9.17309;stroke-dashoffset:.917309;paint-order:fill markers stroke" d="M1.852.165h8.09c2.023 0 4.045 2.023 4.045 4.045v20.226c-2.022 0-4.045-2.023-4.045-4.045V4.21h-8.09Z"/>
  <path style="fill:#0e0e12;fill-opacity:1;stroke:none;stroke-width:4.58654;stroke-linecap:round;stroke-linejoin:round;stroke-dasharray:9.17309,9.17309;stroke-dashoffset:.917309;paint-order:fill markers stroke" d="M1.852.165h8.09c2.023 0 4.045 2.023 4.045 4.045v20.226c-2.022 0-4.045-2.023-4.045-4.045V4.21h-8.09ZM15.2 10.278h4.855v4.045H15.2z"/>
  <path style="fill:#0e0e12;fill-opacity:1;stroke:none;stroke-width:4.58654;stroke-linecap:round;stroke-linejoin:round;stroke-dasharray:9.17309,9.17309;stroke-dashoffset:.917309;paint-order:fill markers stroke" d="M13.583 20.39h8.494v-2.022l4.046 4.045-4.046 4.045v-2.022h-8.494zM11.56.165h10.517V4.21h-7.28c0-1.618-1.214-4.045-3.237-4.045z"/>
</svg>
